<svg fill="none" height="24" viewBox="0 0 24 24" width="24" xmlns="http://www.w3.org/2000/svg"><g stroke="#eb4a97" stroke-linecap="round" stroke-linejoin="round" stroke-width="1.5"><path d="m2 18.2222c.18866.8502.56908 1.7778 1.56235 1.7778 1.71883 0 2.14853-1.7778 3.43765-8 1.28912-6.22222 1.71882-8 3.4376-8 .9933 0 1.3737.92763 1.5624 1.77778m-7.08333 4h5.52093"/><path d="m21 12c1.3804 3.253 1.2854 4.9808 0 8"/><path d="m12 12c-1.3804 3.253-1.2854 4.9808 0 8"/></g><path d="m14 17.25c-.4142 0-.75.3358-.75.75s.3358.75.75.75zm5-2.5c.4142 0 .75-.3358.75-.75s-.3358-.75-.75-.75zm-2.9572.2551.6815-.3131zm.9144 1.9898.6815-.3132zm.4413.7362.4801-.5762zm1.3074 1.0189c.4142 0 .75-.3358.75-.75s-.3358-.75-.75-.75zm-.9795-.8304-.2629.7024zm-3.4323-4.6696c-.4142 0-.75.3358-.75.75s.3358.75.75.75zm.9795.8304-.2629.7024zm.3279.1885-.4801.5762zm-1.6015 4.4811c.767 0 1.3785-.3893 1.8494-.8237.4662-.4301.8843-.9895 1.2499-1.4753.3869-.5142.7214-.9548 1.0683-1.2747.3422-.3156.6045-.4263.8324-.4263v-1.5c-.767 0-1.3785.3893-1.8494.8237-.4662.4301-.8843.9895-1.2499 1.4753-.3869.5142-.7214.9548-1.0683 1.2747-.3422.3156-.6045.4263-.8324.4263zm1.3613-3.4317.9144 1.9897 1.363-.6263-.9144-1.9897zm.9144 1.9897c.1544.336.3154.7266.6427.9993l.9602-1.1524c.0079.0066-.0038.0029-.043-.0659-.0467-.0821-.1002-.1968-.1969-.4073zm2.4302-.058c-.5721 0-.66-.0116-.7166-.0328l-.5258 1.4048c.3731.1396.7949.128 1.2424.128zm-1.7875 1.0573c.1631.1359.3486.2412.5451.3147l.5258-1.4048c-.0476-.0178-.0844-.0403-.1107-.0623zm-2.6243-3.5573c.5721 0 .66.0116.7166.0328l.5258-1.4048c-.3731-.1396-.7949-.128-1.2424-.128zm2.4302-.058c-.1544-.336-.3154-.7266-.6427-.9993l-.9602 1.1524c-.0079-.0066.0038-.0029.043.0659.0467.0821.1002.1968.1969.4073zm-1.7136.0908c.0476.0178.0844.0403.1107.0623l.9602-1.1524c-.1631-.1359-.3486-.2412-.5451-.3147z" fill="#eb4a97"/></svg>